<svg xmlns="http://www.w3.org/2000/svg" xmlns:xlink="http://www.w3.org/1999/xlink" contentStyleType="text/css" data-diagram-type="SEQUENCE" height="149px" preserveAspectRatio="none" style="width:156px;height:149px;background:#FFFFFF;" version="1.1" viewBox="0 0 156 149" width="156px" zoomAndPan="magnify"><defs/><g><g><title>UnitA</title><rect fill="transparent" height="78.2656" width="8" x="27.0381" y="36.2969"/><line style="stroke:#181818;stroke-width:0.5;stroke-dasharray:5.0,5.0;" x1="31" x2="31" y1="36.2969" y2="114.5625"/></g><g><title>UnitB</title><rect fill="transparent" height="78.2656" width="8" x="120.5132" y="36.2969"/><line style="stroke:#181818;stroke-width:0.5;stroke-dasharray:5.0,5.0;" x1="124.4614" x2="124.4614" y1="36.2969" y2="114.5625"/></g><rect fill="#E2E2F0" height="30.2969" rx="2.5" ry="2.5" style="stroke:#181818;stroke-width:0.5;" width="52.0762" x="5" y="5"/><text fill="#000000" font-family="sans-serif" font-size="14" lengthAdjust="spacing" textLength="38.0762" x="12" y="24.9951">UnitA</text><rect fill="#E2E2F0" height="30.2969" rx="2.5" ry="2.5" style="stroke:#181818;stroke-width:0.5;" width="52.0762" x="5" y="113.5625"/><text fill="#000000" font-family="sans-serif" font-size="14" lengthAdjust="spacing" textLength="38.0762" x="12" y="133.5576">UnitA</text><rect fill="#E2E2F0" height="30.2969" rx="2.5" ry="2.5" style="stroke:#181818;stroke-width:0.5;" width="52.1035" x="98.4614" y="5"/><text fill="#000000" font-family="sans-serif" font-size="14" lengthAdjust="spacing" textLength="38.1035" x="105.4614" y="24.9951">UnitB</text><rect fill="#E2E2F0" height="30.2969" rx="2.5" ry="2.5" style="stroke:#181818;stroke-width:0.5;" width="52.1035" x="98.4614" y="113.5625"/><text fill="#000000" font-family="sans-serif" font-size="14" lengthAdjust="spacing" textLength="38.1035" x="105.4614" y="133.5576">UnitB</text><polygon fill="#181818" points="112.5132,63.4297,122.5132,67.4297,112.5132,71.4297,116.5132,67.4297" style="stroke:#181818;stroke-width:1;"/><line style="stroke:#181818;stroke-width:1;" x1="31.0381" x2="118.5132" y1="67.4297" y2="67.4297"/><text fill="#000000" font-family="sans-serif" font-size="13" lengthAdjust="spacing" textLength="59.8457" x="38.0381" y="62.3638">request()</text><polygon fill="#181818" points="42.0381,92.5625,32.0381,96.5625,42.0381,100.5625,38.0381,96.5625" style="stroke:#181818;stroke-width:1;"/><line style="stroke:#181818;stroke-width:1;stroke-dasharray:2.0,2.0;" x1="36.0381" x2="123.5132" y1="96.5625" y2="96.5625"/><text fill="#000000" font-family="sans-serif" font-size="13" lengthAdjust="spacing" textLength="69.4751" x="48.0381" y="91.4966">response()</text><!--SRC=[AqWiAibCpYn8p2jH2CtBB77aAa0JSUBY0aiewDf1-0fM2aMfXQMfnIKQcbmG4Lsed2DOhhWWFwyuLKCJ0000]--></g></svg>