<?xml version="1.0" encoding="utf-8" standalone="no"?>
<!DOCTYPE svg PUBLIC "-//W3C//DTD SVG 1.1//EN"
  "http://www.w3.org/Graphics/SVG/1.1/DTD/svg11.dtd">
<svg xmlns:xlink="http://www.w3.org/1999/xlink" width="576pt" height="288pt" viewBox="0 0 576 288" xmlns="http://www.w3.org/2000/svg" version="1.1">
 <metadata>
  <rdf:RDF xmlns:dc="http://purl.org/dc/elements/1.1/" xmlns:cc="http://creativecommons.org/ns#" xmlns:rdf="http://www.w3.org/1999/02/22-rdf-syntax-ns#">
   <cc:Work>
    <dc:type rdf:resource="http://purl.org/dc/dcmitype/StillImage"/>
    <dc:date>2025-08-01T07:55:45.803650</dc:date>
    <dc:format>image/svg+xml</dc:format>
    <dc:creator>
     <cc:Agent>
      <dc:title>Matplotlib v3.10.1, https://matplotlib.org/</dc:title>
     </cc:Agent>
    </dc:creator>
   </cc:Work>
  </rdf:RDF>
 </metadata>
 <defs>
  <style type="text/css">*{stroke-linejoin: round; stroke-linecap: butt}</style>
 </defs>
 <g id="figure_1">
  <g id="patch_1">
   <path d="M 0 288 
L 576 288 
L 576 0 
L 0 0 
z
" style="fill: #ffffff"/>
  </g>
  <g id="axes_1">
   <g id="patch_2">
    <path d="M 295.199847 44.64 
C 284.77199 44.64 274.407003 46.258155 264.475361 49.436626 
C 254.543718 52.615098 245.165177 57.31556 236.674954 63.370005 
L 295.199847 145.440191 
z
" style="fill: #ff0000"/>
   </g>
   <g id="patch_3">
    <path d="M 236.674953 63.370005 
C 220.831124 74.668361 208.59296 90.316643 201.445389 108.416142 
C 194.297818 126.515644 192.542101 146.303463 196.391265 165.378673 
C 200.240434 184.453881 209.532239 202.012433 223.139267 215.923882 
C 236.746294 229.835331 254.094999 239.513298 273.080387 243.783508 
C 292.065776 248.053717 311.887596 246.736176 330.140786 239.990755 
C 348.393977 233.245334 364.309183 221.356316 375.955268 205.766307 
C 387.601352 190.176299 394.487484 171.542364 395.778103 152.125517 
C 397.068722 132.708668 392.709441 113.327308 383.229202 96.333052 
L 295.199847 145.440191 
z
" style="fill: #008000"/>
   </g>
   <g id="patch_4">
    <path d="M 383.229202 96.333052 
C 374.486952 80.661717 361.716422 67.605481 346.242311 58.518698 
C 330.7682 49.431916 313.144713 44.64 295.199861 44.64 
L 295.199847 145.440191 
z
" style="fill: #0000ff"/>
   </g>
   <g id="matplotlib.axis_1"/>
   <g id="matplotlib.axis_2"/>
   <g id="text_1">
    <!-- Not-Linked -->
    <g transform="translate(207.657592 42.595647) scale(0.1 -0.1)">
     <defs>
      <path id="DejaVuSans-4e" d="M 628 4666 
L 1478 4666 
L 3547 763 
L 3547 4666 
L 4159 4666 
L 4159 0 
L 3309 0 
L 1241 3903 
L 1241 0 
L 628 0 
L 628 4666 
z
" transform="scale(0.015625)"/>
      <path id="DejaVuSans-6f" d="M 1959 3097 
Q 1497 3097 1228 2736 
Q 959 2375 959 1747 
Q 959 1119 1226 758 
Q 1494 397 1959 397 
Q 2419 397 2687 759 
Q 2956 1122 2956 1747 
Q 2956 2369 2687 2733 
Q 2419 3097 1959 3097 
z
M 1959 3584 
Q 2709 3584 3137 3096 
Q 3566 2609 3566 1747 
Q 3566 888 3137 398 
Q 2709 -91 1959 -91 
Q 1206 -91 779 398 
Q 353 888 353 1747 
Q 353 2609 779 3096 
Q 1206 3584 1959 3584 
z
" transform="scale(0.015625)"/>
      <path id="DejaVuSans-74" d="M 1172 4494 
L 1172 3500 
L 2356 3500 
L 2356 3053 
L 1172 3053 
L 1172 1153 
Q 1172 725 1289 603 
Q 1406 481 1766 481 
L 2356 481 
L 2356 0 
L 1766 0 
Q 1100 0 847 248 
Q 594 497 594 1153 
L 594 3053 
L 172 3053 
L 172 3500 
L 594 3500 
L 594 4494 
L 1172 4494 
z
" transform="scale(0.015625)"/>
      <path id="DejaVuSans-2d" d="M 313 2009 
L 1997 2009 
L 1997 1497 
L 313 1497 
L 313 2009 
z
" transform="scale(0.015625)"/>
      <path id="DejaVuSans-4c" d="M 628 4666 
L 1259 4666 
L 1259 531 
L 3531 531 
L 3531 0 
L 628 0 
L 628 4666 
z
" transform="scale(0.015625)"/>
      <path id="DejaVuSans-69" d="M 603 3500 
L 1178 3500 
L 1178 0 
L 603 0 
L 603 3500 
z
M 603 4863 
L 1178 4863 
L 1178 4134 
L 603 4134 
L 603 4863 
z
" transform="scale(0.015625)"/>
      <path id="DejaVuSans-6e" d="M 3513 2113 
L 3513 0 
L 2938 0 
L 2938 2094 
Q 2938 2591 2744 2837 
Q 2550 3084 2163 3084 
Q 1697 3084 1428 2787 
Q 1159 2491 1159 1978 
L 1159 0 
L 581 0 
L 581 3500 
L 1159 3500 
L 1159 2956 
Q 1366 3272 1645 3428 
Q 1925 3584 2291 3584 
Q 2894 3584 3203 3211 
Q 3513 2838 3513 2113 
z
" transform="scale(0.015625)"/>
      <path id="DejaVuSans-6b" d="M 581 4863 
L 1159 4863 
L 1159 1991 
L 2875 3500 
L 3609 3500 
L 1753 1863 
L 3688 0 
L 2938 0 
L 1159 1709 
L 1159 0 
L 581 0 
L 581 4863 
z
" transform="scale(0.015625)"/>
      <path id="DejaVuSans-65" d="M 3597 1894 
L 3597 1613 
L 953 1613 
Q 991 1019 1311 708 
Q 1631 397 2203 397 
Q 2534 397 2845 478 
Q 3156 559 3463 722 
L 3463 178 
Q 3153 47 2828 -22 
Q 2503 -91 2169 -91 
Q 1331 -91 842 396 
Q 353 884 353 1716 
Q 353 2575 817 3079 
Q 1281 3584 2069 3584 
Q 2775 3584 3186 3129 
Q 3597 2675 3597 1894 
z
M 3022 2063 
Q 3016 2534 2758 2815 
Q 2500 3097 2075 3097 
Q 1594 3097 1305 2825 
Q 1016 2553 972 2059 
L 3022 2063 
z
" transform="scale(0.015625)"/>
      <path id="DejaVuSans-64" d="M 2906 2969 
L 2906 4863 
L 3481 4863 
L 3481 0 
L 2906 0 
L 2906 525 
Q 2725 213 2448 61 
Q 2172 -91 1784 -91 
Q 1150 -91 751 415 
Q 353 922 353 1747 
Q 353 2572 751 3078 
Q 1150 3584 1784 3584 
Q 2172 3584 2448 3432 
Q 2725 3281 2906 2969 
z
M 947 1747 
Q 947 1113 1208 752 
Q 1469 391 1925 391 
Q 2381 391 2643 752 
Q 2906 1113 2906 1747 
Q 2906 2381 2643 2742 
Q 2381 3103 1925 3103 
Q 1469 3103 1208 2742 
Q 947 2381 947 1747 
z
" transform="scale(0.015625)"/>
     </defs>
     <use xlink:href="#DejaVuSans-4e"/>
     <use xlink:href="#DejaVuSans-6f" transform="translate(74.804688 0)"/>
     <use xlink:href="#DejaVuSans-74" transform="translate(135.986328 0)"/>
     <use xlink:href="#DejaVuSans-2d" transform="translate(175.195312 0)"/>
     <use xlink:href="#DejaVuSans-4c" transform="translate(211.279297 0)"/>
     <use xlink:href="#DejaVuSans-69" transform="translate(266.992188 0)"/>
     <use xlink:href="#DejaVuSans-6e" transform="translate(294.775391 0)"/>
     <use xlink:href="#DejaVuSans-6b" transform="translate(358.154297 0)"/>
     <use xlink:href="#DejaVuSans-65" transform="translate(412.439453 0)"/>
     <use xlink:href="#DejaVuSans-64" transform="translate(473.962891 0)"/>
    </g>
   </g>
   <g id="text_2">
    <!-- 9.9% -->
    <g transform="translate(265.671401 85.566429) scale(0.08 -0.08)">
     <defs>
      <path id="DejaVuSans-Bold-39" d="M 641 103 
L 641 966 
Q 928 831 1190 764 
Q 1453 697 1709 697 
Q 2247 697 2547 995 
Q 2847 1294 2900 1881 
Q 2688 1725 2447 1647 
Q 2206 1569 1925 1569 
Q 1209 1569 770 1986 
Q 331 2403 331 3084 
Q 331 3838 820 4291 
Q 1309 4744 2131 4744 
Q 3044 4744 3544 4128 
Q 4044 3513 4044 2388 
Q 4044 1231 3459 570 
Q 2875 -91 1856 -91 
Q 1528 -91 1228 -42 
Q 928 6 641 103 
z
M 2125 2350 
Q 2441 2350 2600 2554 
Q 2759 2759 2759 3169 
Q 2759 3575 2600 3781 
Q 2441 3988 2125 3988 
Q 1809 3988 1650 3781 
Q 1491 3575 1491 3169 
Q 1491 2759 1650 2554 
Q 1809 2350 2125 2350 
z
" transform="scale(0.015625)"/>
      <path id="DejaVuSans-Bold-2e" d="M 653 1209 
L 1778 1209 
L 1778 0 
L 653 0 
L 653 1209 
z
" transform="scale(0.015625)"/>
      <path id="DejaVuSans-Bold-25" d="M 4959 1925 
Q 4738 1925 4616 1733 
Q 4494 1541 4494 1184 
Q 4494 825 4614 633 
Q 4734 441 4959 441 
Q 5184 441 5303 633 
Q 5422 825 5422 1184 
Q 5422 1541 5301 1733 
Q 5181 1925 4959 1925 
z
M 4959 2450 
Q 5541 2450 5875 2112 
Q 6209 1775 6209 1184 
Q 6209 594 5875 251 
Q 5541 -91 4959 -91 
Q 4378 -91 4042 251 
Q 3706 594 3706 1184 
Q 3706 1772 4042 2111 
Q 4378 2450 4959 2450 
z
M 2094 -91 
L 1403 -91 
L 4319 4750 
L 5013 4750 
L 2094 -91 
z
M 1453 4750 
Q 2034 4750 2367 4411 
Q 2700 4072 2700 3481 
Q 2700 2891 2367 2550 
Q 2034 2209 1453 2209 
Q 872 2209 539 2550 
Q 206 2891 206 3481 
Q 206 4072 539 4411 
Q 872 4750 1453 4750 
z
M 1453 4225 
Q 1228 4225 1106 4031 
Q 984 3838 984 3481 
Q 984 3122 1106 2926 
Q 1228 2731 1453 2731 
Q 1678 2731 1798 2926 
Q 1919 3122 1919 3481 
Q 1919 3838 1797 4031 
Q 1675 4225 1453 4225 
z
" transform="scale(0.015625)"/>
     </defs>
     <use xlink:href="#DejaVuSans-Bold-39"/>
     <use xlink:href="#DejaVuSans-Bold-2e" transform="translate(69.580078 0)"/>
     <use xlink:href="#DejaVuSans-Bold-39" transform="translate(107.568359 0)"/>
     <use xlink:href="#DejaVuSans-Bold-25" transform="translate(177.148438 0)"/>
    </g>
    <!-- (7) -->
    <g transform="translate(270.325776 94.524679) scale(0.08 -0.08)">
     <defs>
      <path id="DejaVuSans-Bold-28" d="M 2413 -844 
L 1484 -844 
Q 1006 -72 778 623 
Q 550 1319 550 2003 
Q 550 2688 779 3389 
Q 1009 4091 1484 4856 
L 2413 4856 
Q 2013 4116 1813 3408 
Q 1613 2700 1613 2009 
Q 1613 1319 1811 609 
Q 2009 -100 2413 -844 
z
" transform="scale(0.015625)"/>
      <path id="DejaVuSans-Bold-37" d="M 428 4666 
L 3944 4666 
L 3944 3988 
L 2125 0 
L 953 0 
L 2675 3781 
L 428 3781 
L 428 4666 
z
" transform="scale(0.015625)"/>
      <path id="DejaVuSans-Bold-29" d="M 513 -844 
Q 913 -100 1113 609 
Q 1313 1319 1313 2009 
Q 1313 2700 1113 3408 
Q 913 4116 513 4856 
L 1441 4856 
Q 1916 4091 2145 3389 
Q 2375 2688 2375 2003 
Q 2375 1319 2147 623 
Q 1919 -72 1441 -844 
L 513 -844 
z
" transform="scale(0.015625)"/>
     </defs>
     <use xlink:href="#DejaVuSans-Bold-28"/>
     <use xlink:href="#DejaVuSans-Bold-37" transform="translate(45.703125 0)"/>
     <use xlink:href="#DejaVuSans-Bold-29" transform="translate(115.283203 0)"/>
    </g>
   </g>
   <g id="text_3">
    <!--  Linked Work product -->
    <g transform="translate(164.938805 256.377227) scale(0.1 -0.1)">
     <defs>
      <path id="DejaVuSans-20" transform="scale(0.015625)"/>
      <path id="DejaVuSans-57" d="M 213 4666 
L 850 4666 
L 1831 722 
L 2809 4666 
L 3519 4666 
L 4500 722 
L 5478 4666 
L 6119 4666 
L 4947 0 
L 4153 0 
L 3169 4050 
L 2175 0 
L 1381 0 
L 213 4666 
z
" transform="scale(0.015625)"/>
      <path id="DejaVuSans-72" d="M 2631 2963 
Q 2534 3019 2420 3045 
Q 2306 3072 2169 3072 
Q 1681 3072 1420 2755 
Q 1159 2438 1159 1844 
L 1159 0 
L 581 0 
L 581 3500 
L 1159 3500 
L 1159 2956 
Q 1341 3275 1631 3429 
Q 1922 3584 2338 3584 
Q 2397 3584 2469 3576 
Q 2541 3569 2628 3553 
L 2631 2963 
z
" transform="scale(0.015625)"/>
      <path id="DejaVuSans-70" d="M 1159 525 
L 1159 -1331 
L 581 -1331 
L 581 3500 
L 1159 3500 
L 1159 2969 
Q 1341 3281 1617 3432 
Q 1894 3584 2278 3584 
Q 2916 3584 3314 3078 
Q 3713 2572 3713 1747 
Q 3713 922 3314 415 
Q 2916 -91 2278 -91 
Q 1894 -91 1617 61 
Q 1341 213 1159 525 
z
M 3116 1747 
Q 3116 2381 2855 2742 
Q 2594 3103 2138 3103 
Q 1681 3103 1420 2742 
Q 1159 2381 1159 1747 
Q 1159 1113 1420 752 
Q 1681 391 2138 391 
Q 2594 391 2855 752 
Q 3116 1113 3116 1747 
z
" transform="scale(0.015625)"/>
      <path id="DejaVuSans-75" d="M 544 1381 
L 544 3500 
L 1119 3500 
L 1119 1403 
Q 1119 906 1312 657 
Q 1506 409 1894 409 
Q 2359 409 2629 706 
Q 2900 1003 2900 1516 
L 2900 3500 
L 3475 3500 
L 3475 0 
L 2900 0 
L 2900 538 
Q 2691 219 2414 64 
Q 2138 -91 1772 -91 
Q 1169 -91 856 284 
Q 544 659 544 1381 
z
M 1991 3584 
L 1991 3584 
z
" transform="scale(0.015625)"/>
      <path id="DejaVuSans-63" d="M 3122 3366 
L 3122 2828 
Q 2878 2963 2633 3030 
Q 2388 3097 2138 3097 
Q 1578 3097 1268 2742 
Q 959 2388 959 1747 
Q 959 1106 1268 751 
Q 1578 397 2138 397 
Q 2388 397 2633 464 
Q 2878 531 3122 666 
L 3122 134 
Q 2881 22 2623 -34 
Q 2366 -91 2075 -91 
Q 1284 -91 818 406 
Q 353 903 353 1747 
Q 353 2603 823 3093 
Q 1294 3584 2113 3584 
Q 2378 3584 2631 3529 
Q 2884 3475 3122 3366 
z
" transform="scale(0.015625)"/>
     </defs>
     <use xlink:href="#DejaVuSans-20"/>
     <use xlink:href="#DejaVuSans-4c" transform="translate(31.787109 0)"/>
     <use xlink:href="#DejaVuSans-69" transform="translate(87.5 0)"/>
     <use xlink:href="#DejaVuSans-6e" transform="translate(115.283203 0)"/>
     <use xlink:href="#DejaVuSans-6b" transform="translate(178.662109 0)"/>
     <use xlink:href="#DejaVuSans-65" transform="translate(232.947266 0)"/>
     <use xlink:href="#DejaVuSans-64" transform="translate(294.470703 0)"/>
     <use xlink:href="#DejaVuSans-20" transform="translate(357.947266 0)"/>
     <use xlink:href="#DejaVuSans-57" transform="translate(389.734375 0)"/>
     <use xlink:href="#DejaVuSans-6f" transform="translate(482.736328 0)"/>
     <use xlink:href="#DejaVuSans-72" transform="translate(543.917969 0)"/>
     <use xlink:href="#DejaVuSans-6b" transform="translate(585.03125 0)"/>
     <use xlink:href="#DejaVuSans-20" transform="translate(642.941406 0)"/>
     <use xlink:href="#DejaVuSans-70" transform="translate(674.728516 0)"/>
     <use xlink:href="#DejaVuSans-72" transform="translate(738.205078 0)"/>
     <use xlink:href="#DejaVuSans-6f" transform="translate(777.068359 0)"/>
     <use xlink:href="#DejaVuSans-64" transform="translate(838.25 0)"/>
     <use xlink:href="#DejaVuSans-75" transform="translate(901.726562 0)"/>
     <use xlink:href="#DejaVuSans-63" transform="translate(965.105469 0)"/>
     <use xlink:href="#DejaVuSans-74" transform="translate(1020.085938 0)"/>
    </g>
   </g>
   <g id="text_4">
    <!-- 73.2% -->
    <g transform="translate(268.051324 202.174563) scale(0.08 -0.08)">
     <defs>
      <path id="DejaVuSans-Bold-33" d="M 2981 2516 
Q 3453 2394 3698 2092 
Q 3944 1791 3944 1325 
Q 3944 631 3412 270 
Q 2881 -91 1863 -91 
Q 1503 -91 1142 -33 
Q 781 25 428 141 
L 428 1069 
Q 766 900 1098 814 
Q 1431 728 1753 728 
Q 2231 728 2486 893 
Q 2741 1059 2741 1369 
Q 2741 1688 2480 1852 
Q 2219 2016 1709 2016 
L 1228 2016 
L 1228 2791 
L 1734 2791 
Q 2188 2791 2409 2933 
Q 2631 3075 2631 3366 
Q 2631 3634 2415 3781 
Q 2200 3928 1806 3928 
Q 1516 3928 1219 3862 
Q 922 3797 628 3669 
L 628 4550 
Q 984 4650 1334 4700 
Q 1684 4750 2022 4750 
Q 2931 4750 3382 4451 
Q 3834 4153 3834 3553 
Q 3834 3144 3618 2883 
Q 3403 2622 2981 2516 
z
" transform="scale(0.015625)"/>
      <path id="DejaVuSans-Bold-32" d="M 1844 884 
L 3897 884 
L 3897 0 
L 506 0 
L 506 884 
L 2209 2388 
Q 2438 2594 2547 2791 
Q 2656 2988 2656 3200 
Q 2656 3528 2436 3728 
Q 2216 3928 1850 3928 
Q 1569 3928 1234 3808 
Q 900 3688 519 3450 
L 519 4475 
Q 925 4609 1322 4679 
Q 1719 4750 2100 4750 
Q 2938 4750 3402 4381 
Q 3866 4013 3866 3353 
Q 3866 2972 3669 2642 
Q 3472 2313 2841 1759 
L 1844 884 
z
" transform="scale(0.015625)"/>
     </defs>
     <use xlink:href="#DejaVuSans-Bold-37"/>
     <use xlink:href="#DejaVuSans-Bold-33" transform="translate(69.580078 0)"/>
     <use xlink:href="#DejaVuSans-Bold-2e" transform="translate(139.160156 0)"/>
     <use xlink:href="#DejaVuSans-Bold-32" transform="translate(177.148438 0)"/>
     <use xlink:href="#DejaVuSans-Bold-25" transform="translate(246.728516 0)"/>
    </g>
    <!-- (52) -->
    <g transform="translate(272.705699 211.132813) scale(0.08 -0.08)">
     <defs>
      <path id="DejaVuSans-Bold-35" d="M 678 4666 
L 3669 4666 
L 3669 3781 
L 1638 3781 
L 1638 3059 
Q 1775 3097 1914 3117 
Q 2053 3138 2203 3138 
Q 3056 3138 3531 2711 
Q 4006 2284 4006 1522 
Q 4006 766 3489 337 
Q 2972 -91 2053 -91 
Q 1656 -91 1267 -14 
Q 878 63 494 219 
L 494 1166 
Q 875 947 1217 837 
Q 1559 728 1863 728 
Q 2300 728 2551 942 
Q 2803 1156 2803 1522 
Q 2803 1891 2551 2103 
Q 2300 2316 1863 2316 
Q 1603 2316 1309 2248 
Q 1016 2181 678 2041 
L 678 4666 
z
" transform="scale(0.015625)"/>
     </defs>
     <use xlink:href="#DejaVuSans-Bold-28"/>
     <use xlink:href="#DejaVuSans-Bold-35" transform="translate(45.703125 0)"/>
     <use xlink:href="#DejaVuSans-Bold-32" transform="translate(115.283203 0)"/>
     <use xlink:href="#DejaVuSans-Bold-29" transform="translate(184.863281 0)"/>
    </g>
   </g>
   <g id="text_5">
    <!--  Linked Work product To Multiple Workflows -->
    <g transform="translate(351.346558 52.585928) scale(0.1 -0.1)">
     <defs>
      <path id="DejaVuSans-54" d="M -19 4666 
L 3928 4666 
L 3928 4134 
L 2272 4134 
L 2272 0 
L 1638 0 
L 1638 4134 
L -19 4134 
L -19 4666 
z
" transform="scale(0.015625)"/>
      <path id="DejaVuSans-4d" d="M 628 4666 
L 1569 4666 
L 2759 1491 
L 3956 4666 
L 4897 4666 
L 4897 0 
L 4281 0 
L 4281 4097 
L 3078 897 
L 2444 897 
L 1241 4097 
L 1241 0 
L 628 0 
L 628 4666 
z
" transform="scale(0.015625)"/>
      <path id="DejaVuSans-6c" d="M 603 4863 
L 1178 4863 
L 1178 0 
L 603 0 
L 603 4863 
z
" transform="scale(0.015625)"/>
      <path id="DejaVuSans-66" d="M 2375 4863 
L 2375 4384 
L 1825 4384 
Q 1516 4384 1395 4259 
Q 1275 4134 1275 3809 
L 1275 3500 
L 2222 3500 
L 2222 3053 
L 1275 3053 
L 1275 0 
L 697 0 
L 697 3053 
L 147 3053 
L 147 3500 
L 697 3500 
L 697 3744 
Q 697 4328 969 4595 
Q 1241 4863 1831 4863 
L 2375 4863 
z
" transform="scale(0.015625)"/>
      <path id="DejaVuSans-77" d="M 269 3500 
L 844 3500 
L 1563 769 
L 2278 3500 
L 2956 3500 
L 3675 769 
L 4391 3500 
L 4966 3500 
L 4050 0 
L 3372 0 
L 2619 2869 
L 1863 0 
L 1184 0 
L 269 3500 
z
" transform="scale(0.015625)"/>
      <path id="DejaVuSans-73" d="M 2834 3397 
L 2834 2853 
Q 2591 2978 2328 3040 
Q 2066 3103 1784 3103 
Q 1356 3103 1142 2972 
Q 928 2841 928 2578 
Q 928 2378 1081 2264 
Q 1234 2150 1697 2047 
L 1894 2003 
Q 2506 1872 2764 1633 
Q 3022 1394 3022 966 
Q 3022 478 2636 193 
Q 2250 -91 1575 -91 
Q 1294 -91 989 -36 
Q 684 19 347 128 
L 347 722 
Q 666 556 975 473 
Q 1284 391 1588 391 
Q 1994 391 2212 530 
Q 2431 669 2431 922 
Q 2431 1156 2273 1281 
Q 2116 1406 1581 1522 
L 1381 1569 
Q 847 1681 609 1914 
Q 372 2147 372 2553 
Q 372 3047 722 3315 
Q 1072 3584 1716 3584 
Q 2034 3584 2315 3537 
Q 2597 3491 2834 3397 
z
" transform="scale(0.015625)"/>
     </defs>
     <use xlink:href="#DejaVuSans-20"/>
     <use xlink:href="#DejaVuSans-4c" transform="translate(31.787109 0)"/>
     <use xlink:href="#DejaVuSans-69" transform="translate(87.5 0)"/>
     <use xlink:href="#DejaVuSans-6e" transform="translate(115.283203 0)"/>
     <use xlink:href="#DejaVuSans-6b" transform="translate(178.662109 0)"/>
     <use xlink:href="#DejaVuSans-65" transform="translate(232.947266 0)"/>
     <use xlink:href="#DejaVuSans-64" transform="translate(294.470703 0)"/>
     <use xlink:href="#DejaVuSans-20" transform="translate(357.947266 0)"/>
     <use xlink:href="#DejaVuSans-57" transform="translate(389.734375 0)"/>
     <use xlink:href="#DejaVuSans-6f" transform="translate(482.736328 0)"/>
     <use xlink:href="#DejaVuSans-72" transform="translate(543.917969 0)"/>
     <use xlink:href="#DejaVuSans-6b" transform="translate(585.03125 0)"/>
     <use xlink:href="#DejaVuSans-20" transform="translate(642.941406 0)"/>
     <use xlink:href="#DejaVuSans-70" transform="translate(674.728516 0)"/>
     <use xlink:href="#DejaVuSans-72" transform="translate(738.205078 0)"/>
     <use xlink:href="#DejaVuSans-6f" transform="translate(777.068359 0)"/>
     <use xlink:href="#DejaVuSans-64" transform="translate(838.25 0)"/>
     <use xlink:href="#DejaVuSans-75" transform="translate(901.726562 0)"/>
     <use xlink:href="#DejaVuSans-63" transform="translate(965.105469 0)"/>
     <use xlink:href="#DejaVuSans-74" transform="translate(1020.085938 0)"/>
     <use xlink:href="#DejaVuSans-20" transform="translate(1059.294922 0)"/>
     <use xlink:href="#DejaVuSans-54" transform="translate(1091.082031 0)"/>
     <use xlink:href="#DejaVuSans-6f" transform="translate(1135.166016 0)"/>
     <use xlink:href="#DejaVuSans-20" transform="translate(1196.347656 0)"/>
     <use xlink:href="#DejaVuSans-4d" transform="translate(1228.134766 0)"/>
     <use xlink:href="#DejaVuSans-75" transform="translate(1314.414062 0)"/>
     <use xlink:href="#DejaVuSans-6c" transform="translate(1377.792969 0)"/>
     <use xlink:href="#DejaVuSans-74" transform="translate(1405.576172 0)"/>
     <use xlink:href="#DejaVuSans-69" transform="translate(1444.785156 0)"/>
     <use xlink:href="#DejaVuSans-70" transform="translate(1472.568359 0)"/>
     <use xlink:href="#DejaVuSans-6c" transform="translate(1536.044922 0)"/>
     <use xlink:href="#DejaVuSans-65" transform="translate(1563.828125 0)"/>
     <use xlink:href="#DejaVuSans-20" transform="translate(1625.351562 0)"/>
     <use xlink:href="#DejaVuSans-57" transform="translate(1657.138672 0)"/>
     <use xlink:href="#DejaVuSans-6f" transform="translate(1750.140625 0)"/>
     <use xlink:href="#DejaVuSans-72" transform="translate(1811.322266 0)"/>
     <use xlink:href="#DejaVuSans-6b" transform="translate(1852.435547 0)"/>
     <use xlink:href="#DejaVuSans-66" transform="translate(1910.345703 0)"/>
     <use xlink:href="#DejaVuSans-6c" transform="translate(1945.550781 0)"/>
     <use xlink:href="#DejaVuSans-6f" transform="translate(1973.333984 0)"/>
     <use xlink:href="#DejaVuSans-77" transform="translate(2034.515625 0)"/>
     <use xlink:href="#DejaVuSans-73" transform="translate(2116.302734 0)"/>
    </g>
   </g>
   <g id="text_6">
    <!-- 16.9% -->
    <g transform="translate(311.948451 91.015672) scale(0.08 -0.08)">
     <defs>
      <path id="DejaVuSans-Bold-31" d="M 750 831 
L 1813 831 
L 1813 3847 
L 722 3622 
L 722 4441 
L 1806 4666 
L 2950 4666 
L 2950 831 
L 4013 831 
L 4013 0 
L 750 0 
L 750 831 
z
" transform="scale(0.015625)"/>
      <path id="DejaVuSans-Bold-36" d="M 2316 2303 
Q 2000 2303 1842 2098 
Q 1684 1894 1684 1484 
Q 1684 1075 1842 870 
Q 2000 666 2316 666 
Q 2634 666 2792 870 
Q 2950 1075 2950 1484 
Q 2950 1894 2792 2098 
Q 2634 2303 2316 2303 
z
M 3803 4544 
L 3803 3681 
Q 3506 3822 3243 3889 
Q 2981 3956 2731 3956 
Q 2194 3956 1894 3657 
Q 1594 3359 1544 2772 
Q 1750 2925 1990 3001 
Q 2231 3078 2516 3078 
Q 3231 3078 3670 2659 
Q 4109 2241 4109 1563 
Q 4109 813 3618 361 
Q 3128 -91 2303 -91 
Q 1394 -91 895 523 
Q 397 1138 397 2266 
Q 397 3422 980 4083 
Q 1563 4744 2578 4744 
Q 2900 4744 3203 4694 
Q 3506 4644 3803 4544 
z
" transform="scale(0.015625)"/>
     </defs>
     <use xlink:href="#DejaVuSans-Bold-31"/>
     <use xlink:href="#DejaVuSans-Bold-36" transform="translate(69.580078 0)"/>
     <use xlink:href="#DejaVuSans-Bold-2e" transform="translate(139.160156 0)"/>
     <use xlink:href="#DejaVuSans-Bold-39" transform="translate(177.148438 0)"/>
     <use xlink:href="#DejaVuSans-Bold-25" transform="translate(246.728516 0)"/>
    </g>
    <!-- (12) -->
    <g transform="translate(316.602826 99.973922) scale(0.08 -0.08)">
     <use xlink:href="#DejaVuSans-Bold-28"/>
     <use xlink:href="#DejaVuSans-Bold-31" transform="translate(45.703125 0)"/>
     <use xlink:href="#DejaVuSans-Bold-32" transform="translate(115.283203 0)"/>
     <use xlink:href="#DejaVuSans-Bold-29" transform="translate(184.863281 0)"/>
    </g>
   </g>
   <g id="text_7">
    <!-- The project work products contained in exactly one project workflow -->
    <g transform="translate(89.548125 28.56) scale(0.12 -0.12)">
     <defs>
      <path id="DejaVuSans-68" d="M 3513 2113 
L 3513 0 
L 2938 0 
L 2938 2094 
Q 2938 2591 2744 2837 
Q 2550 3084 2163 3084 
Q 1697 3084 1428 2787 
Q 1159 2491 1159 1978 
L 1159 0 
L 581 0 
L 581 4863 
L 1159 4863 
L 1159 2956 
Q 1366 3272 1645 3428 
Q 1925 3584 2291 3584 
Q 2894 3584 3203 3211 
Q 3513 2838 3513 2113 
z
" transform="scale(0.015625)"/>
      <path id="DejaVuSans-6a" d="M 603 3500 
L 1178 3500 
L 1178 -63 
Q 1178 -731 923 -1031 
Q 669 -1331 103 -1331 
L -116 -1331 
L -116 -844 
L 38 -844 
Q 366 -844 484 -692 
Q 603 -541 603 -63 
L 603 3500 
z
M 603 4863 
L 1178 4863 
L 1178 4134 
L 603 4134 
L 603 4863 
z
" transform="scale(0.015625)"/>
      <path id="DejaVuSans-61" d="M 2194 1759 
Q 1497 1759 1228 1600 
Q 959 1441 959 1056 
Q 959 750 1161 570 
Q 1363 391 1709 391 
Q 2188 391 2477 730 
Q 2766 1069 2766 1631 
L 2766 1759 
L 2194 1759 
z
M 3341 1997 
L 3341 0 
L 2766 0 
L 2766 531 
Q 2569 213 2275 61 
Q 1981 -91 1556 -91 
Q 1019 -91 701 211 
Q 384 513 384 1019 
Q 384 1609 779 1909 
Q 1175 2209 1959 2209 
L 2766 2209 
L 2766 2266 
Q 2766 2663 2505 2880 
Q 2244 3097 1772 3097 
Q 1472 3097 1187 3025 
Q 903 2953 641 2809 
L 641 3341 
Q 956 3463 1253 3523 
Q 1550 3584 1831 3584 
Q 2591 3584 2966 3190 
Q 3341 2797 3341 1997 
z
" transform="scale(0.015625)"/>
      <path id="DejaVuSans-78" d="M 3513 3500 
L 2247 1797 
L 3578 0 
L 2900 0 
L 1881 1375 
L 863 0 
L 184 0 
L 1544 1831 
L 300 3500 
L 978 3500 
L 1906 2253 
L 2834 3500 
L 3513 3500 
z
" transform="scale(0.015625)"/>
      <path id="DejaVuSans-79" d="M 2059 -325 
Q 1816 -950 1584 -1140 
Q 1353 -1331 966 -1331 
L 506 -1331 
L 506 -850 
L 844 -850 
Q 1081 -850 1212 -737 
Q 1344 -625 1503 -206 
L 1606 56 
L 191 3500 
L 800 3500 
L 1894 763 
L 2988 3500 
L 3597 3500 
L 2059 -325 
z
" transform="scale(0.015625)"/>
     </defs>
     <use xlink:href="#DejaVuSans-54"/>
     <use xlink:href="#DejaVuSans-68" transform="translate(61.083984 0)"/>
     <use xlink:href="#DejaVuSans-65" transform="translate(124.462891 0)"/>
     <use xlink:href="#DejaVuSans-20" transform="translate(185.986328 0)"/>
     <use xlink:href="#DejaVuSans-70" transform="translate(217.773438 0)"/>
     <use xlink:href="#DejaVuSans-72" transform="translate(281.25 0)"/>
     <use xlink:href="#DejaVuSans-6f" transform="translate(320.113281 0)"/>
     <use xlink:href="#DejaVuSans-6a" transform="translate(381.294922 0)"/>
     <use xlink:href="#DejaVuSans-65" transform="translate(409.078125 0)"/>
     <use xlink:href="#DejaVuSans-63" transform="translate(470.601562 0)"/>
     <use xlink:href="#DejaVuSans-74" transform="translate(525.582031 0)"/>
     <use xlink:href="#DejaVuSans-20" transform="translate(564.791016 0)"/>
     <use xlink:href="#DejaVuSans-77" transform="translate(596.578125 0)"/>
     <use xlink:href="#DejaVuSans-6f" transform="translate(678.365234 0)"/>
     <use xlink:href="#DejaVuSans-72" transform="translate(739.546875 0)"/>
     <use xlink:href="#DejaVuSans-6b" transform="translate(780.660156 0)"/>
     <use xlink:href="#DejaVuSans-20" transform="translate(838.570312 0)"/>
     <use xlink:href="#DejaVuSans-70" transform="translate(870.357422 0)"/>
     <use xlink:href="#DejaVuSans-72" transform="translate(933.833984 0)"/>
     <use xlink:href="#DejaVuSans-6f" transform="translate(972.697266 0)"/>
     <use xlink:href="#DejaVuSans-64" transform="translate(1033.878906 0)"/>
     <use xlink:href="#DejaVuSans-75" transform="translate(1097.355469 0)"/>
     <use xlink:href="#DejaVuSans-63" transform="translate(1160.734375 0)"/>
     <use xlink:href="#DejaVuSans-74" transform="translate(1215.714844 0)"/>
     <use xlink:href="#DejaVuSans-73" transform="translate(1254.923828 0)"/>
     <use xlink:href="#DejaVuSans-20" transform="translate(1307.023438 0)"/>
     <use xlink:href="#DejaVuSans-63" transform="translate(1338.810547 0)"/>
     <use xlink:href="#DejaVuSans-6f" transform="translate(1393.791016 0)"/>
     <use xlink:href="#DejaVuSans-6e" transform="translate(1454.972656 0)"/>
     <use xlink:href="#DejaVuSans-74" transform="translate(1518.351562 0)"/>
     <use xlink:href="#DejaVuSans-61" transform="translate(1557.560547 0)"/>
     <use xlink:href="#DejaVuSans-69" transform="translate(1618.839844 0)"/>
     <use xlink:href="#DejaVuSans-6e" transform="translate(1646.623047 0)"/>
     <use xlink:href="#DejaVuSans-65" transform="translate(1710.001953 0)"/>
     <use xlink:href="#DejaVuSans-64" transform="translate(1771.525391 0)"/>
     <use xlink:href="#DejaVuSans-20" transform="translate(1835.001953 0)"/>
     <use xlink:href="#DejaVuSans-69" transform="translate(1866.789062 0)"/>
     <use xlink:href="#DejaVuSans-6e" transform="translate(1894.572266 0)"/>
     <use xlink:href="#DejaVuSans-20" transform="translate(1957.951172 0)"/>
     <use xlink:href="#DejaVuSans-65" transform="translate(1989.738281 0)"/>
     <use xlink:href="#DejaVuSans-78" transform="translate(2049.511719 0)"/>
     <use xlink:href="#DejaVuSans-61" transform="translate(2108.691406 0)"/>
     <use xlink:href="#DejaVuSans-63" transform="translate(2169.970703 0)"/>
     <use xlink:href="#DejaVuSans-74" transform="translate(2224.951172 0)"/>
     <use xlink:href="#DejaVuSans-6c" transform="translate(2264.160156 0)"/>
     <use xlink:href="#DejaVuSans-79" transform="translate(2291.943359 0)"/>
     <use xlink:href="#DejaVuSans-20" transform="translate(2351.123047 0)"/>
     <use xlink:href="#DejaVuSans-6f" transform="translate(2382.910156 0)"/>
     <use xlink:href="#DejaVuSans-6e" transform="translate(2444.091797 0)"/>
     <use xlink:href="#DejaVuSans-65" transform="translate(2507.470703 0)"/>
     <use xlink:href="#DejaVuSans-20" transform="translate(2568.994141 0)"/>
     <use xlink:href="#DejaVuSans-70" transform="translate(2600.78125 0)"/>
     <use xlink:href="#DejaVuSans-72" transform="translate(2664.257812 0)"/>
     <use xlink:href="#DejaVuSans-6f" transform="translate(2703.121094 0)"/>
     <use xlink:href="#DejaVuSans-6a" transform="translate(2764.302734 0)"/>
     <use xlink:href="#DejaVuSans-65" transform="translate(2792.085938 0)"/>
     <use xlink:href="#DejaVuSans-63" transform="translate(2853.609375 0)"/>
     <use xlink:href="#DejaVuSans-74" transform="translate(2908.589844 0)"/>
     <use xlink:href="#DejaVuSans-20" transform="translate(2947.798828 0)"/>
     <use xlink:href="#DejaVuSans-77" transform="translate(2979.585938 0)"/>
     <use xlink:href="#DejaVuSans-6f" transform="translate(3061.373047 0)"/>
     <use xlink:href="#DejaVuSans-72" transform="translate(3122.554688 0)"/>
     <use xlink:href="#DejaVuSans-6b" transform="translate(3163.667969 0)"/>
     <use xlink:href="#DejaVuSans-66" transform="translate(3221.578125 0)"/>
     <use xlink:href="#DejaVuSans-6c" transform="translate(3256.783203 0)"/>
     <use xlink:href="#DejaVuSans-6f" transform="translate(3284.566406 0)"/>
     <use xlink:href="#DejaVuSans-77" transform="translate(3345.748047 0)"/>
    </g>
   </g>
   <g id="legend_1">
    <g id="patch_5">
     <path d="M 436.12 176.29625 
L 681.779375 176.29625 
Q 683.779375 176.29625 683.779375 174.29625 
L 683.779375 116.58375 
Q 683.779375 114.58375 681.779375 114.58375 
L 436.12 114.58375 
Q 434.12 114.58375 434.12 116.58375 
L 434.12 174.29625 
Q 434.12 176.29625 436.12 176.29625 
z
" style="fill: #ffffff; opacity: 0.8; stroke: #cccccc; stroke-linejoin: miter"/>
    </g>
    <g id="text_8">
     <!-- legend -->
     <g transform="translate(541.890313 126.182187) scale(0.1 -0.1)">
      <defs>
       <path id="DejaVuSans-67" d="M 2906 1791 
Q 2906 2416 2648 2759 
Q 2391 3103 1925 3103 
Q 1463 3103 1205 2759 
Q 947 2416 947 1791 
Q 947 1169 1205 825 
Q 1463 481 1925 481 
Q 2391 481 2648 825 
Q 2906 1169 2906 1791 
z
M 3481 434 
Q 3481 -459 3084 -895 
Q 2688 -1331 1869 -1331 
Q 1566 -1331 1297 -1286 
Q 1028 -1241 775 -1147 
L 775 -588 
Q 1028 -725 1275 -790 
Q 1522 -856 1778 -856 
Q 2344 -856 2625 -561 
Q 2906 -266 2906 331 
L 2906 616 
Q 2728 306 2450 153 
Q 2172 0 1784 0 
Q 1141 0 747 490 
Q 353 981 353 1791 
Q 353 2603 747 3093 
Q 1141 3584 1784 3584 
Q 2172 3584 2450 3431 
Q 2728 3278 2906 2969 
L 2906 3500 
L 3481 3500 
L 3481 434 
z
" transform="scale(0.015625)"/>
      </defs>
      <use xlink:href="#DejaVuSans-6c"/>
      <use xlink:href="#DejaVuSans-65" transform="translate(27.783203 0)"/>
      <use xlink:href="#DejaVuSans-67" transform="translate(89.306641 0)"/>
      <use xlink:href="#DejaVuSans-65" transform="translate(152.783203 0)"/>
      <use xlink:href="#DejaVuSans-6e" transform="translate(214.306641 0)"/>
      <use xlink:href="#DejaVuSans-64" transform="translate(277.685547 0)"/>
     </g>
    </g>
    <g id="patch_6">
     <path d="M 438.12 140.860312 
L 458.12 140.860312 
L 458.12 133.860312 
L 438.12 133.860312 
z
" style="fill: #ff0000"/>
    </g>
    <g id="text_9">
     <!-- Not-Linked -->
     <g transform="translate(466.12 140.860312) scale(0.1 -0.1)">
      <use xlink:href="#DejaVuSans-4e"/>
      <use xlink:href="#DejaVuSans-6f" transform="translate(74.804688 0)"/>
      <use xlink:href="#DejaVuSans-74" transform="translate(135.986328 0)"/>
      <use xlink:href="#DejaVuSans-2d" transform="translate(175.195312 0)"/>
      <use xlink:href="#DejaVuSans-4c" transform="translate(211.279297 0)"/>
      <use xlink:href="#DejaVuSans-69" transform="translate(266.992188 0)"/>
      <use xlink:href="#DejaVuSans-6e" transform="translate(294.775391 0)"/>
      <use xlink:href="#DejaVuSans-6b" transform="translate(358.154297 0)"/>
      <use xlink:href="#DejaVuSans-65" transform="translate(412.439453 0)"/>
      <use xlink:href="#DejaVuSans-64" transform="translate(473.962891 0)"/>
     </g>
    </g>
    <g id="patch_7">
     <path d="M 438.12 155.538437 
L 458.12 155.538437 
L 458.12 148.538437 
L 438.12 148.538437 
z
" style="fill: #008000"/>
    </g>
    <g id="text_10">
     <!-- Linked Work product -->
     <g transform="translate(466.12 155.538437) scale(0.1 -0.1)">
      <use xlink:href="#DejaVuSans-4c"/>
      <use xlink:href="#DejaVuSans-69" transform="translate(55.712891 0)"/>
      <use xlink:href="#DejaVuSans-6e" transform="translate(83.496094 0)"/>
      <use xlink:href="#DejaVuSans-6b" transform="translate(146.875 0)"/>
      <use xlink:href="#DejaVuSans-65" transform="translate(201.160156 0)"/>
      <use xlink:href="#DejaVuSans-64" transform="translate(262.683594 0)"/>
      <use xlink:href="#DejaVuSans-20" transform="translate(326.160156 0)"/>
      <use xlink:href="#DejaVuSans-57" transform="translate(357.947266 0)"/>
      <use xlink:href="#DejaVuSans-6f" transform="translate(450.949219 0)"/>
      <use xlink:href="#DejaVuSans-72" transform="translate(512.130859 0)"/>
      <use xlink:href="#DejaVuSans-6b" transform="translate(553.244141 0)"/>
      <use xlink:href="#DejaVuSans-20" transform="translate(611.154297 0)"/>
      <use xlink:href="#DejaVuSans-70" transform="translate(642.941406 0)"/>
      <use xlink:href="#DejaVuSans-72" transform="translate(706.417969 0)"/>
      <use xlink:href="#DejaVuSans-6f" transform="translate(745.28125 0)"/>
      <use xlink:href="#DejaVuSans-64" transform="translate(806.462891 0)"/>
      <use xlink:href="#DejaVuSans-75" transform="translate(869.939453 0)"/>
      <use xlink:href="#DejaVuSans-63" transform="translate(933.318359 0)"/>
      <use xlink:href="#DejaVuSans-74" transform="translate(988.298828 0)"/>
     </g>
    </g>
    <g id="patch_8">
     <path d="M 438.12 170.216563 
L 458.12 170.216563 
L 458.12 163.216563 
L 438.12 163.216563 
z
" style="fill: #0000ff"/>
    </g>
    <g id="text_11">
     <!-- Linked Work product To Multiple Workflows -->
     <g transform="translate(466.12 170.216563) scale(0.1 -0.1)">
      <use xlink:href="#DejaVuSans-4c"/>
      <use xlink:href="#DejaVuSans-69" transform="translate(55.712891 0)"/>
      <use xlink:href="#DejaVuSans-6e" transform="translate(83.496094 0)"/>
      <use xlink:href="#DejaVuSans-6b" transform="translate(146.875 0)"/>
      <use xlink:href="#DejaVuSans-65" transform="translate(201.160156 0)"/>
      <use xlink:href="#DejaVuSans-64" transform="translate(262.683594 0)"/>
      <use xlink:href="#DejaVuSans-20" transform="translate(326.160156 0)"/>
      <use xlink:href="#DejaVuSans-57" transform="translate(357.947266 0)"/>
      <use xlink:href="#DejaVuSans-6f" transform="translate(450.949219 0)"/>
      <use xlink:href="#DejaVuSans-72" transform="translate(512.130859 0)"/>
      <use xlink:href="#DejaVuSans-6b" transform="translate(553.244141 0)"/>
      <use xlink:href="#DejaVuSans-20" transform="translate(611.154297 0)"/>
      <use xlink:href="#DejaVuSans-70" transform="translate(642.941406 0)"/>
      <use xlink:href="#DejaVuSans-72" transform="translate(706.417969 0)"/>
      <use xlink:href="#DejaVuSans-6f" transform="translate(745.28125 0)"/>
      <use xlink:href="#DejaVuSans-64" transform="translate(806.462891 0)"/>
      <use xlink:href="#DejaVuSans-75" transform="translate(869.939453 0)"/>
      <use xlink:href="#DejaVuSans-63" transform="translate(933.318359 0)"/>
      <use xlink:href="#DejaVuSans-74" transform="translate(988.298828 0)"/>
      <use xlink:href="#DejaVuSans-20" transform="translate(1027.507812 0)"/>
      <use xlink:href="#DejaVuSans-54" transform="translate(1059.294922 0)"/>
      <use xlink:href="#DejaVuSans-6f" transform="translate(1103.378906 0)"/>
      <use xlink:href="#DejaVuSans-20" transform="translate(1164.560547 0)"/>
      <use xlink:href="#DejaVuSans-4d" transform="translate(1196.347656 0)"/>
      <use xlink:href="#DejaVuSans-75" transform="translate(1282.626953 0)"/>
      <use xlink:href="#DejaVuSans-6c" transform="translate(1346.005859 0)"/>
      <use xlink:href="#DejaVuSans-74" transform="translate(1373.789062 0)"/>
      <use xlink:href="#DejaVuSans-69" transform="translate(1412.998047 0)"/>
      <use xlink:href="#DejaVuSans-70" transform="translate(1440.78125 0)"/>
      <use xlink:href="#DejaVuSans-6c" transform="translate(1504.257812 0)"/>
      <use xlink:href="#DejaVuSans-65" transform="translate(1532.041016 0)"/>
      <use xlink:href="#DejaVuSans-20" transform="translate(1593.564453 0)"/>
      <use xlink:href="#DejaVuSans-57" transform="translate(1625.351562 0)"/>
      <use xlink:href="#DejaVuSans-6f" transform="translate(1718.353516 0)"/>
      <use xlink:href="#DejaVuSans-72" transform="translate(1779.535156 0)"/>
      <use xlink:href="#DejaVuSans-6b" transform="translate(1820.648438 0)"/>
      <use xlink:href="#DejaVuSans-66" transform="translate(1878.558594 0)"/>
      <use xlink:href="#DejaVuSans-6c" transform="translate(1913.763672 0)"/>
      <use xlink:href="#DejaVuSans-6f" transform="translate(1941.546875 0)"/>
      <use xlink:href="#DejaVuSans-77" transform="translate(2002.728516 0)"/>
      <use xlink:href="#DejaVuSans-73" transform="translate(2084.515625 0)"/>
     </g>
    </g>
   </g>
  </g>
 </g>
</svg>
