<svg xmlns="http://www.w3.org/2000/svg" xmlns:xlink="http://www.w3.org/1999/xlink" contentStyleType="text/css" data-diagram-type="CLASS" height="338px" preserveAspectRatio="none" style="width:411px;height:338px;background:#FFFFFF;" version="1.1" viewBox="0 0 411 338" width="411px" zoomAndPan="magnify"><defs/><g><a href="../folder_templates/features/feature_name/architecture/index.html#mod_view_sta__feature_name__module_name" target="_top" title="../folder_templates/features/feature_name/architecture/index.html#mod_view_sta__feature_name__module_name" xlink:actuate="onRequest" xlink:href="../folder_templates/features/feature_name/architecture/index.html#mod_view_sta__feature_name__module_name" xlink:show="new" xlink:title="../folder_templates/features/feature_name/architecture/index.html#mod_view_sta__feature_name__module_name" xlink:type="simple"><path d="M279.5,17 L388.4531,17 A3.75,3.75 0 0 1 390.9531,19.5 L397.9531,39.2969 L402.4531,39.2969 A2.5,2.5 0 0 1 404.9531,41.7969 L404.9531,67.0938 A2.5,2.5 0 0 1 402.4531,69.5938 L279.5,69.5938 A2.5,2.5 0 0 1 277,67.0938 L277,19.5 A2.5,2.5 0 0 1 279.5,17 " fill="#F1F1F1" style="stroke:#181818;stroke-width:0.5;"/><line style="stroke:#181818;stroke-width:0.5;" x1="277" x2="397.9531" y1="39.2969" y2="39.2969"/><text fill="#000000" font-family="sans-serif" font-size="14" font-weight="bold" lengthAdjust="spacing" textLength="107.9531" x="281" y="31.9951">Module Name</text></a><!--entity Feature_User--><g id="elem_Feature_User"><ellipse cx="197.1685" cy="14" fill="#F1F1F1" rx="8" ry="8" style="stroke:#181818;stroke-width:0.5;"/><path d="M197.1685,22 L197.1685,49 M184.1685,30 L210.1685,30 M197.1685,49 L184.1685,64 M197.1685,49 L210.1685,64 " fill="transparent" style="stroke:#181818;stroke-width:0.5;"/><text fill="#000000" font-family="sans-serif" font-size="14" lengthAdjust="spacing" textLength="90.3369" x="152" y="78.4951">Feature User</text></g><!--class logic_arc_int__feature_name__interface_name--><a href="../folder_templates/features/feature_name/architecture/index.html#logic_arc_int__feature_name__interface_name" target="_top" title="../folder_templates/features/feature_name/architecture/index.html#logic_arc_int__feature_name__interface_name" xlink:actuate="onRequest" xlink:href="../folder_templates/features/feature_name/architecture/index.html#logic_arc_int__feature_name__interface_name" xlink:show="new" xlink:title="../folder_templates/features/feature_name/architecture/index.html#logic_arc_int__feature_name__interface_name" xlink:type="simple"><g id="elem_logic_arc_int__feature_name__interface_name"><rect codeLine="14" fill="#F1F1F1" height="56.2969" id="logic_arc_int__feature_name__interface_name" rx="2.5" ry="2.5" style="stroke:#181818;stroke-width:0.5;" width="140.4316" x="127" y="158.5"/><ellipse cx="142" cy="174.5" fill="#B4A7E5" rx="11" ry="11" style="stroke:#181818;stroke-width:1;"/><path d="M137.9219,170.2656 L137.9219,168.1094 L145.3125,168.1094 L145.3125,170.2656 L142.8438,170.2656 L142.8438,178.3438 L145.3125,178.3438 L145.3125,180.5 L137.9219,180.5 L137.9219,178.3438 L140.3906,178.3438 L140.3906,170.2656 L137.9219,170.2656 Z " fill="#000000"/><text fill="#000000" font-family="sans-serif" font-size="14" font-style="italic" lengthAdjust="spacing" textLength="108.4316" x="156" y="179.3467">Interface Name</text><line style="stroke:#181818;stroke-width:0.5;" x1="128" x2="266.4316" y1="190.5" y2="190.5"/></g><a href="../folder_templates/features/feature_name/architecture/index.html#logic_arc_int_op__feature_name__operation" target="_top" title="../folder_templates/features/feature_name/architecture/index.html#logic_arc_int_op__feature_name__operation" xlink:actuate="onRequest" xlink:href="../folder_templates/features/feature_name/architecture/index.html#logic_arc_int_op__feature_name__operation" xlink:show="new" xlink:title="../folder_templates/features/feature_name/architecture/index.html#logic_arc_int_op__feature_name__operation" xlink:type="simple"><rect fill="#F1F1F1" height="10" style="stroke:transparent;stroke-width:1;" width="20" x="133" y="199.1484"/><ellipse cx="138" cy="204.1484" fill="#84BE84" rx="3" ry="3" style="stroke:#038048;stroke-width:1;"/></a></a><a href="../folder_templates/features/feature_name/architecture/index.html#logic_arc_int_op__feature_name__operation" target="_top" title="../folder_templates/features/feature_name/architecture/index.html#logic_arc_int_op__feature_name__operation" xlink:actuate="onRequest" xlink:href="../folder_templates/features/feature_name/architecture/index.html#logic_arc_int_op__feature_name__operation" xlink:show="new" xlink:title="../folder_templates/features/feature_name/architecture/index.html#logic_arc_int_op__feature_name__operation" xlink:type="simple"><text fill="#000000" font-family="sans-serif" font-size="14" lengthAdjust="spacing" textLength="85.0459" x="147" y="207.4951">Operation ()</text></a><!--class comp_arc_sta__feature_name__component_name--><g id="elem_comp_arc_sta__feature_name__component_name"><rect fill="#F1F1F1" height="40" id="comp_arc_sta__feature_name__component_name" rx="2.5" ry="2.5" style="stroke:#181818;stroke-width:0.5;" width="379.6416" x="7" y="291.5"/><ellipse cx="22" cy="307.5" fill="#ADD1B2" rx="11" ry="11" style="stroke:#181818;stroke-width:1;"/><path d="M24.9688,313.1406 Q24.3906,313.4375 23.75,313.5781 Q23.1094,313.7344 22.4063,313.7344 Q19.9063,313.7344 18.5781,312.0938 Q17.2656,310.4375 17.2656,307.3125 Q17.2656,304.1875 18.5781,302.5313 Q19.9063,300.875 22.4063,300.875 Q23.1094,300.875 23.75,301.0313 Q24.4063,301.1875 24.9688,301.4844 L24.9688,304.2031 Q24.3438,303.625 23.75,303.3594 Q23.1563,303.0781 22.5313,303.0781 Q21.1875,303.0781 20.5,304.1563 Q19.8125,305.2188 19.8125,307.3125 Q19.8125,309.4063 20.5,310.4844 Q21.1875,311.5469 22.5313,311.5469 Q23.1563,311.5469 23.75,311.2813 Q24.3438,311 24.9688,310.4219 L24.9688,313.1406 Z " fill="#000000"/><text fill="#000000" font-family="sans-serif" font-size="14" lengthAdjust="spacing" textLength="347.6416" x="36" y="312.3467">comp_arc_sta__feature_name__component_name</text><line style="stroke:#181818;stroke-width:0.5;" x1="8" x2="385.6416" y1="323.5" y2="323.5"/></g><!--link Feature_User to logic_arc_int__feature_name__interface_name--><g id="link_Feature_User_logic_arc_int__feature_name__interface_name"><path codeLine="24" d="M197,81.55 C197,105.53 197,130.25 197,152.06 " fill="transparent" id="Feature_User-to-logic_arc_int__feature_name__interface_name" style="stroke:#181818;stroke-width:1;"/><polygon fill="#181818" points="197,158.06,201,149.06,197,153.06,193,149.06,197,158.06" style="stroke:#181818;stroke-width:1;"/><text fill="#000000" font-family="sans-serif" font-size="13" lengthAdjust="spacing" textLength="23.0103" x="198" y="124.5669">use</text></g><!--reverse link logic_arc_int__feature_name__interface_name to comp_arc_sta__feature_name__component_name--><g id="link_logic_arc_int__feature_name__interface_name_comp_arc_sta__feature_name__component_name"><path codeLine="25" d="M197,220.8 C197,244.01 197,270.76 197,291.3 " fill="transparent" id="logic_arc_int__feature_name__interface_name-backto-comp_arc_sta__feature_name__component_name" style="stroke:#181818;stroke-width:1;"/><polygon fill="#181818" points="197,214.8,193,223.8,197,219.8,201,223.8,197,214.8" style="stroke:#181818;stroke-width:1;"/><text fill="#000000" font-family="sans-serif" font-size="13" lengthAdjust="spacing" textLength="76.9082" x="198" y="257.5669">implements</text></g><!--SRC=[hL9DImD13BtdLuHwg2BT5OyYlGY2uCT5Jx8CqzcqEpYpMMQorYBzxwPhBLeyMF0sITvBtdkC3O6N9lettov0k4DXdB48Hwnz8YUUMsXyJPY54h6iElgiANQoGYkI_AmNod2PPHLe2eNDFipm7MvzIrSSE66YUgWU6-zUMiePpuipMCDbkUM0TQAuqJLPwHFXKwOqGfjnsp2R1e9lLSJSEiBHpUvvRoCDsC0BxunDpYZEcFcMskhSc1rrg16VdukYd7EeAHbHBy6gXtBBsJq6SAah6oyQXdPAtzRqLZGImz411wjA0u5JVEWesKseU7oY6lvT17VxElZhObLL06iin_WpEnoN2D1Pzs8N6kmTrttubchashnwMfeiTdzt7B3_cEWVZscQ6kVWvPlSJoFmuyjCwidqa8znWNqc1CUn6mY_wDZCk2NTDFYUz8TUy9eDHLsG4Ju0]--></g></svg>